<?xml version="1.0" encoding="UTF-8"?>
<svg id="Warstwa_1" xmlns="http://www.w3.org/2000/svg" version="1.1" viewBox="0 0 80 80">
  <!-- Generator: Adobe Illustrator 30.2.1, SVG Export Plug-In . SVG Version: 2.1.1 Build 1)  -->
  <defs>
    <style>
      .st0 {
        fill: #e5e5e5;
      }

      .st1 {
        fill: #172f4f;
      }

      .st2 {
        fill: #f5a11a;
      }
    </style>
  </defs>
  <g>
    <path class="st1" d="M56.46,32.54l-12.57-10.73h-.86l-12.22,10.74-.22.49v17.5l.66.66h4.71v-1.31h-4.05v-16.55l11.57-10.16,11.91,10.17v16.54h-14.34l6.14-8.76-1.07-.75-8.8,12.56-.12.38v1.68c-.65.26-1.11.89-1.11,1.63,0,.97.79,1.76,1.76,1.76s1.76-.79,1.76-1.76c0-.74-.46-1.37-1.11-1.63v-1.47l1.63-2.33h2.88v6.47c-.65.26-1.11.89-1.11,1.63,0,.97.79,1.76,1.76,1.76s1.76-.79,1.76-1.76c0-.74-.46-1.37-1.11-1.63v-6.47h2.88l1.63,2.33v1.47c-.65.26-1.11.89-1.11,1.63,0,.97.79,1.76,1.76,1.76s1.76-.79,1.76-1.76c0-.74-.46-1.37-1.11-1.63v-1.68l-.12-.38-1.22-1.74h7.24l.66-.66v-17.5l-.23-.5h.01ZM37.83,57.07c-.25,0-.45-.2-.45-.45s.2-.45.45-.45.45.2.45.45-.2.45-.45.45ZM43.65,59.74c-.25,0-.45-.2-.45-.45s.2-.45.45-.45.45.2.45.45-.2.45-.45.45ZM49.48,57.07c-.25,0-.45-.2-.45-.45s.2-.45.45-.45.45.2.45.45-.2.45-.45.45Z"/>
    <rect class="st1" x="37.38" y="64.2" width="5.24" height="1.91"/>
    <path class="st1" d="M56.7,25.98v-14.16l-1.05-1.05h-31.3l-1.05,1.05v56.36l1.05,1.05h31.3l1.05-1.05v-11.93h-2.1v10.88h-29.21V12.87h8.15l1.26,2.56.86.53h8.66l.86-.53,1.26-2.56h8.15v13.11h2.11ZM43.73,14.05h-7.47l-.58-1.18h8.63s-.58,1.18-.58,1.18Z"/>
    <g>
      <path class="st1" d="M40.39,41.4c-2.98,0-5.41-2.43-5.41-5.41,0-1.88.96-3.6,2.56-4.59l.69,1.11c-1.22.75-1.94,2.06-1.94,3.48,0,2.26,1.84,4.1,4.1,4.1s4.1-1.84,4.1-4.1c0-1.42-.73-2.73-1.94-3.48l.69-1.11c1.6,1,2.56,2.71,2.56,4.59,0,2.98-2.43,5.41-5.41,5.41Z"/>
      <rect class="st1" x="39.73" y="29.11" width="1.31" height="7.24"/>
    </g>
    <g>
      <path class="st2" d="M40.05,41.4c-2.98,0-5.41-2.43-5.41-5.41,0-1.88.96-3.6,2.56-4.59l.69,1.11c-1.22.75-1.94,2.06-1.94,3.48,0,2.26,1.84,4.1,4.1,4.1s4.1-1.84,4.1-4.1c0-1.42-.73-2.73-1.94-3.48l.69-1.11c1.6,1,2.56,2.71,2.56,4.59,0,2.98-2.43,5.41-5.41,5.41Z"/>
      <rect class="st2" x="39.4" y="29.11" width="1.31" height="7.24"/>
    </g>
  </g>
  <g>
    <path class="st0" d="M72.83,80H7.17l-7.17-7.17V7.17C2.8,4.37,4.37,2.8,7.17,0h65.67c2.8,2.8,4.37,4.37,7.17,7.17v65.67c-2.8,2.8-4.37,4.37-7.17,7.17Z"/>
    <g>
      <g>
        <g>
          <path class="st1" d="M59.2,35.94c0,.59.34,1.1.83,1.36v15.71c0,1.39-1.13,2.52-2.52,2.52h-4.34c-1.39,0-2.52-1.13-2.52-2.52h-1.43c0,2.18,1.77,3.95,3.95,3.95h4.34c2.18,0,3.95-1.77,3.95-3.95v-15.71c.49-.26.83-.77.83-1.36v-8.62h-3.09v8.62Z"/>
          <path class="st1" d="M61.26,16.43v-4.22c0-.28-.23-.52-.52-.52s-.52.23-.52.52v4.22c-.6.21-1.03.78-1.03,1.45v8.62h3.09v-8.62c0-.67-.43-1.24-1.03-1.45Z"/>
        </g>
        <g>
          <path class="st2" d="M58.82,35.94c0,.59.34,1.1.83,1.36v15.71c0,1.39-1.13,2.52-2.52,2.52h-4.34c-1.39,0-2.52-1.13-2.52-2.52h-1.43c0,2.18,1.77,3.95,3.95,3.95h4.34c2.18,0,3.95-1.77,3.95-3.95v-15.71c.49-.26.83-.77.83-1.36v-8.62h-3.09v8.62Z"/>
          <path class="st2" d="M60.88,16.43v-4.22c0-.28-.23-.52-.52-.52s-.52.23-.52.52v4.22c-.6.21-1.03.78-1.03,1.45v8.62h3.09v-8.62c0-.67-.43-1.24-1.03-1.45Z"/>
        </g>
        <path class="st1" d="M52.22,28.03h-16.16l-.71-.71v-12.18l.71-.71h16.16l.71.71v12.18l-.71.71ZM36.77,26.6h14.73v-10.75h-14.73v10.75Z"/>
        <path class="st1" d="M43.86,30.23c-4,0-7.25,3.25-7.25,7.25s3.25,7.25,7.25,7.25,7.25-3.25,7.25-7.25-3.25-7.25-7.25-7.25ZM43.86,43.3c-3.21,0-5.82-2.61-5.82-5.82,0-1.35.46-2.59,1.24-3.58l6.77,6.93,1.02-1-6.78-6.94c.99-.77,2.23-1.24,3.57-1.24,3.21,0,5.82,2.61,5.82,5.82s-2.61,5.82-5.82,5.82Z"/>
        <g>
          <path class="st1" d="M25.38,35.94c0,.59.34,1.1.83,1.36v6.18h1.43v-6.18c.49-.26.83-.77.83-1.36v-8.62h-3.09v8.62Z"/>
          <path class="st1" d="M27.44,16.43v-4.22c0-.28-.23-.52-.52-.52s-.52.23-.52.52v4.22c-.6.21-1.03.78-1.03,1.45v8.62h3.09v-8.62c0-.67-.43-1.24-1.03-1.45Z"/>
        </g>
        <path class="st2" d="M47.14,25.41,47.01,17.05h-2.11l-3.09,4.42h2.09l-2.76,3.94h2.13l3.86-5.51h-2.13l2.01-2.85Z"/>
        <path class="st1" d="M55.73,10.77h-23.19l-.71.71v32.86h1.43V12.2h21.76v37.36h-2.92v-3.6l-.71-.71h-3.43l-.71.71v3.6h-3.31l1.42,1.43h1.9v2.03l.71.71h3.43l.71-.71v-2.03h3.64l.71-.71V11.49l-.71-.71ZM50.67,52.3h-2v-5.63h2v5.63Z"/>
      </g>
      <g>
        <path class="st1" d="M60.37,59.49h-8.13v2.29h8.13c1.42,0,2.58,1.16,2.58,2.58s-1.16,2.58-2.58,2.58h-25.48l-5.31-5.41-.82-.34h-2.24v-12.84h10.57l10.27,10.36c.99,1,.99,2.62,0,3.62-.49.49-1.13.76-1.82.76h0c-.69,0-1.34-.27-1.82-.76l-7.7-7.76-1.62,1.61,7.7,7.76c.92.93,2.14,1.44,3.44,1.44h0c1.3,0,2.52-.51,3.44-1.43,1.87-1.88,1.88-4.95,0-6.84l-10.61-10.7-.81-.34h-11.05v-.32l-1.14-1.14h-9.48l-1.14,1.14v18.62l1.14,1.14h9.48l1.14-1.14v-.89h1.76l5.31,5.41.82.34h25.96c2.68,0,4.87-2.18,4.87-4.87s-2.18-4.87-4.87-4.87ZM24.24,63.22h-7.2v-16.34h7.2v16.34Z"/>
        <path class="st1" d="M19.49,58.15c-.15.15-.23.23-.37.37v2.07c.15.15.23.23.37.37h2.07c.15-.15.23-.23.37-.37v-2.07c-.15-.15-.23-.23-.37-.37h-2.07Z"/>
      </g>
    </g>
  </g>
</svg>