<?xml version="1.0" encoding="UTF-8"?>
<svg id="Warstwa_1" xmlns="http://www.w3.org/2000/svg" version="1.1" viewBox="0 0 80 80">
  <!-- Generator: Adobe Illustrator 30.2.1, SVG Export Plug-In . SVG Version: 2.1.1 Build 1)  -->
  <defs>
    <style>
      .st0 {
        fill: #e5e5e5;
      }

      .st1 {
        fill: #172f4f;
      }

      .st2 {
        fill: #f5a11a;
      }
    </style>
  </defs>
  <path class="st0" d="M72.83,80H7.17c-2.8-2.8-4.37-4.37-7.17-7.17V7.17L7.17,0h65.67c2.8,2.8,4.37,4.37,7.17,7.17v65.67c-2.8,2.8-4.37,4.37-7.17,7.17Z"/>
  <g>
    <path class="st1" d="M56.46,32.54l-12.57-10.73h-.86s-12.22,10.74-12.22,10.74l-.22.49v17.5l.66.66h4.71v-1.31h-4.05v-16.55l11.57-10.16,11.91,10.17v16.54h-14.34l6.14-8.76-1.07-.75-8.8,12.56-.12.38v1.68c-.65.26-1.11.89-1.11,1.63,0,.97.79,1.76,1.76,1.76s1.76-.79,1.76-1.76c0-.74-.46-1.37-1.11-1.63v-1.47l1.63-2.33h2.88v6.47c-.65.26-1.11.89-1.11,1.63,0,.97.79,1.76,1.76,1.76s1.76-.79,1.76-1.76c0-.74-.46-1.37-1.11-1.63v-6.47h2.88l1.63,2.33v1.47c-.65.26-1.11.89-1.11,1.63,0,.97.79,1.76,1.76,1.76s1.76-.79,1.76-1.76c0-.74-.46-1.37-1.11-1.63v-1.68l-.12-.38-1.22-1.74h7.24l.66-.66v-17.5l-.23-.5ZM37.83,57.07c-.25,0-.45-.2-.45-.45s.2-.45.45-.45.45.2.45.45-.2.45-.45.45ZM43.65,59.74c-.25,0-.45-.2-.45-.45s.2-.45.45-.45.45.2.45.45-.2.45-.45.45ZM49.48,57.07c-.25,0-.45-.2-.45-.45s.2-.45.45-.45.45.2.45.45-.2.45-.45.45Z"/>
    <rect class="st1" x="37.38" y="64.2" width="5.24" height="1.91"/>
    <path class="st1" d="M56.7,25.98v-14.16l-1.05-1.05h-31.3l-1.05,1.05v56.36l1.05,1.05h31.3l1.05-1.05v-11.93h-2.1v10.88h-29.21V12.87h8.15l1.26,2.56.86.53h8.66l.86-.53,1.26-2.56h8.15v13.11h2.1ZM43.73,14.05h-7.47l-.58-1.18h8.63l-.58,1.18Z"/>
    <g>
      <path class="st1" d="M40.39,41.4c-2.98,0-5.41-2.43-5.41-5.41,0-1.88.96-3.6,2.56-4.59l.69,1.11c-1.22.75-1.94,2.06-1.94,3.48,0,2.26,1.84,4.1,4.1,4.1s4.1-1.84,4.1-4.1c0-1.42-.73-2.73-1.94-3.48l.69-1.11c1.6,1,2.56,2.71,2.56,4.59,0,2.98-2.43,5.41-5.41,5.41Z"/>
      <rect class="st1" x="39.73" y="29.11" width="1.31" height="7.24"/>
    </g>
    <g>
      <path class="st2" d="M40.05,41.4c-2.98,0-5.41-2.43-5.41-5.41,0-1.88.96-3.6,2.56-4.59l.69,1.11c-1.22.75-1.94,2.06-1.94,3.48,0,2.26,1.84,4.1,4.1,4.1s4.1-1.84,4.1-4.1c0-1.42-.73-2.73-1.94-3.48l.69-1.11c1.6,1,2.56,2.71,2.56,4.59,0,2.98-2.43,5.41-5.41,5.41Z"/>
      <rect class="st2" x="39.4" y="29.11" width="1.31" height="7.24"/>
    </g>
  </g>
</svg>