<?xml version="1.0" encoding="UTF-8"?>
<svg id="Warstwa_1" xmlns="http://www.w3.org/2000/svg" version="1.1" viewBox="0 0 80 80">
  <!-- Generator: Adobe Illustrator 30.2.1, SVG Export Plug-In . SVG Version: 2.1.1 Build 1)  -->
  <defs>
    <style>
      .st0 {
        fill: #e5e5e5;
      }

      .st1 {
        fill: #172f4f;
      }

      .st2 {
        fill: #f5a11a;
      }
    </style>
  </defs>
  <path class="st0" d="M72.83,80H7.17c-2.8-2.8-4.37-4.37-7.17-7.17V7.17C2.8,4.37,4.37,2.8,7.17,0h65.67c2.8,2.8,4.37,4.37,7.17,7.17v65.67c-2.8,2.8-4.37,4.37-7.17,7.17Z"/>
  <g>
    <path class="st1" d="M27.72,42.82h-3.61l-.79-.79v-3.16c-1.45-.31-2.84-.88-4.08-1.68l-2.25,2.25h-1.12l-2.55-2.55v-1.12l2.24-2.24c-.81-1.26-1.4-2.66-1.71-4.12h-3.1l-.79-.79v-3.61l.79-.79h3.1c.31-1.43.87-2.8,1.65-4.03l-2.18-2.18v-1.12l2.55-2.55h1.12l2.15,2.15c1.27-.83,2.69-1.43,4.18-1.75v-3.16l.79-.79h3.61l.79.79v3.16c1.48.32,2.89.91,4.16,1.74l2.14-2.14h1.12l2.55,2.55v1.12l-2.16,2.16c.79,1.23,1.35,2.61,1.66,4.04h3.1l.79.79v3.61l-.79.79h-3.1c-.32,1.47-.9,2.88-1.72,4.14l2.22,2.22v1.12l-2.55,2.55h-1.12l-2.24-2.24c-1.24.79-2.62,1.36-4.06,1.67v3.16l-.79.79ZM24.89,41.24h2.03v-3.03l.67-.78c1.66-.26,3.25-.92,4.61-1.89l1.02.08,2.14,2.14,1.44-1.44-2.13-2.13-.08-1.03c1.01-1.38,1.68-2.99,1.95-4.68l.78-.67h2.96v-2.03h-2.96l-.78-.67c-.26-1.65-.91-3.24-1.88-4.59l.08-1.02,2.06-2.06-1.44-1.44-2.05,2.05-1.03.08c-1.38-1.02-3-1.69-4.7-1.96l-.67-.78v-3.03h-2.03v3.03l-.67.78c-1.7.27-3.33.95-4.71,1.97l-1.03-.08-2.06-2.06-1.44,1.44,2.08,2.08.08,1.02c-.97,1.35-1.61,2.93-1.87,4.58l-.78.67h-2.96v2.03h2.96l.78.67c.26,1.68.93,3.29,1.94,4.66l-.08,1.03-2.15,2.15,1.44,1.44,2.15-2.15,1.02-.08c1.36.99,2.96,1.64,4.62,1.91l.67.78v3.03Z"/>
    <g>
      <path class="st1" d="M29.14,63.26v-11l-1.26-1.26h-5.06l-1.26,1.26v11l1.26,1.26h5.06l1.26-1.26ZM26.61,62h-2.54v-8.48h2.54v8.48Z"/>
      <path class="st1" d="M43.86,63.26v-11l-1.26-1.26h-5.06l-1.26,1.26v11l1.26,1.26h5.06l1.26-1.26ZM41.33,62h-2.54v-8.48h2.54v8.48Z"/>
      <path class="st1" d="M58.59,63.26v-11l-1.26-1.26h-5.06l-1.26,1.26v11l1.26,1.26h5.06l1.26-1.26ZM56.06,62h-2.54v-8.48h2.54v8.48Z"/>
      <path class="st1" d="M70.64,42.25v-12.27l-2.14-.91-10.75,10.26v-20.75h6.17v10.54h2.53v-10.54h1.21v-2.53h-1.21v-3.79l-1.26-1.26h-8.7l-1.26,1.26v3.79h-1.21v2.53h1.21v23.16l-3.68,3.51h-16.55l12.91-12.32v9.31h2.53v-12.27l-2.14-.91-16.96,16.18h-14.9v2.53h51.69v18.92H12.03v-19.85l4.23-4.03h-3.66l-2.7,2.58-.39.91v21.66l1.26,1.26h58.61l1.26-1.26v-21.45l-1.26-1.26h-14.17l12.91-12.32v9.31h2.53ZM57.74,13.52h6.17v2.53h-6.17v-2.53Z"/>
    </g>
    <path class="st2" d="M27.13,42.82h-3.61l-.79-.79v-3.16c-1.45-.31-2.84-.88-4.08-1.68l-2.25,2.25h-1.12l-2.55-2.55v-1.12l2.24-2.24c-.81-1.26-1.4-2.66-1.71-4.12h-3.1l-.79-.79v-3.61l.79-.79h3.1c.31-1.43.87-2.8,1.65-4.03l-2.18-2.18v-1.12l2.55-2.55h1.12l2.15,2.15c1.27-.83,2.69-1.43,4.18-1.75v-3.16l.79-.79h3.61l.79.79v3.16c1.48.32,2.89.91,4.16,1.74l2.14-2.14h1.12l2.55,2.55v1.12l-2.16,2.16c.79,1.23,1.35,2.61,1.66,4.04h3.1l.79.79v3.61l-.79.79h-3.1c-.32,1.47-.9,2.88-1.72,4.14l2.22,2.22v1.12l-2.55,2.55h-1.12l-2.24-2.24c-1.24.79-2.62,1.36-4.06,1.67v3.16l-.79.79ZM24.3,41.24h2.03v-3.03l.67-.78c1.66-.26,3.25-.92,4.61-1.89l1.02.08,2.14,2.14,1.44-1.44-2.13-2.13-.08-1.03c1.01-1.38,1.68-2.99,1.95-4.68l.78-.67h2.96v-2.03h-2.96l-.78-.67c-.26-1.65-.91-3.24-1.88-4.59l.08-1.02,2.06-2.06-1.44-1.44-2.05,2.05-1.03.08c-1.38-1.02-3-1.69-4.7-1.96l-.67-.78v-3.03h-2.03v3.03l-.67.78c-1.7.27-3.33.95-4.71,1.97l-1.03-.08-2.06-2.06-1.44,1.44,2.08,2.08.08,1.02c-.97,1.35-1.61,2.93-1.87,4.58l-.78.67h-2.96v2.03h2.96l.78.67c.26,1.68.93,3.29,1.94,4.66l-.08,1.03-2.15,2.15,1.44,1.44,2.15-2.15,1.02-.08c1.36.99,2.96,1.64,4.62,1.91l.67.78v3.03Z"/>
    <path class="st2" d="M32.32,21.26l-1.24.98c1.03,1.31,1.58,2.88,1.58,4.55,0,3.96-3.16,7.19-7.08,7.33l6.13-8.76h-5.99s4.29-6.15,4.29-6.15l-1.43-.71c-1.04-.41-2.14-.62-3.27-.62-4.92,0-8.92,4-8.92,8.92,0,3.38,1.88,6.44,4.9,7.96l.71-1.41c-2.49-1.26-4.03-3.77-4.03-6.55,0-4.05,3.29-7.34,7.34-7.34.8,0,1.58.14,2.33.39l-4.95,7.08h5.98s-5.86,8.38-5.86,8.38c0,0,.75.26,1.23.32.42.05.85.09,1.27.09,4.92,0,8.92-4,8.92-8.92,0-2.03-.66-3.94-1.92-5.53Z"/>
  </g>
</svg>