<?xml version="1.0" encoding="UTF-8"?>
<svg id="Warstwa_1" xmlns="http://www.w3.org/2000/svg" version="1.1" viewBox="0 0 80 80">
  <!-- Generator: Adobe Illustrator 30.2.1, SVG Export Plug-In . SVG Version: 2.1.1 Build 1)  -->
  <defs>
    <style>
      .st0 {
        fill: #e5e5e5;
      }

      .st1 {
        fill: #172f4f;
      }

      .st2 {
        fill: #f5a11a;
      }
    </style>
  </defs>
  <path class="st0" d="M72.83,80H7.17c-2.8-2.8-4.37-4.37-7.17-7.17V7.17C2.8,4.37,4.37,2.8,7.17,0h65.67c2.8,2.8,4.37,4.37,7.17,7.17v65.67c-2.8,2.8-4.37,4.37-7.17,7.17Z"/>
  <g>
    <path class="st1" d="M57.45,16.17h-6.61l-1.06,1.06v1.58l-9.07-8.04h-1.41l-24.77,21.94-.36.79v34.66l1.06,1.06h21.87v-2.12h-20.8v-33.12l23.71-21,18.51,16.37v-12.13l-1.06-1.06ZM51.9,20.69v-2.4h4.48v6.37l-4.48-3.97Z"/>
    <g>
      <polygon class="st1" points="26.38 34.68 27.71 34.68 27.71 32.51 36.64 32.51 36.64 34.63 37.97 34.63 37.97 32.51 39.6 32.51 39.6 31.18 37.97 31.18 37.97 28.52 37.31 27.86 30.14 27.86 30.14 26.48 34.21 26.48 34.21 27.14 35.54 27.14 35.54 25.82 34.88 25.16 29.47 25.16 28.81 25.82 28.81 27.86 27.04 27.86 26.38 28.52 26.38 30.55 27.71 30.55 27.71 29.19 36.64 29.19 36.64 31.18 24.75 31.18 24.75 32.51 26.38 32.51 26.38 34.68"/>
      <path class="st1" d="M29.42,34.68v6.07c-.73.27-1.26.97-1.26,1.79,0,1.06.86,1.92,1.92,1.92s1.92-.86,1.92-1.92c0-.82-.53-1.52-1.26-1.79v-6.07h-1.33ZM30.09,43.13c-.33,0-.59-.27-.59-.59s.27-.59.59-.59.59.27.59.59-.27.59-.59.59Z"/>
      <path class="st1" d="M33.6,34.63v6.12c-.73.27-1.26.97-1.26,1.79,0,1.06.86,1.92,1.92,1.92s1.92-.86,1.92-1.92c0-.82-.53-1.52-1.26-1.79v-6.12h-1.33ZM34.26,43.13c-.33,0-.59-.27-.59-.59s.27-.59.59-.59.59.27.59.59-.27.59-.59.59Z"/>
      <path class="st1" d="M39.77,37.21l-.89.99c1.85,1.67,2.87,3.89,2.87,6.27,0,4.84-4.3,8.78-9.58,8.78s-9.58-3.94-9.58-8.78c0-2.4,1.03-4.64,2.91-6.31l-.88-.99c-2.17,1.92-3.36,4.52-3.36,7.3,0,5.57,4.89,10.11,10.9,10.11s10.9-4.53,10.9-10.11c0-2.76-1.18-5.34-3.31-7.26Z"/>
    </g>
    <g>
      <polygon class="st2" points="26.05 34.68 27.37 34.68 27.37 32.51 36.31 32.51 36.31 34.63 37.64 34.63 37.64 32.51 39.27 32.51 39.27 31.18 37.64 31.18 37.64 28.52 36.97 27.86 29.8 27.86 29.8 26.48 33.88 26.48 33.88 27.14 35.21 27.14 35.21 25.82 34.54 25.16 29.14 25.16 28.48 25.82 28.48 27.86 26.71 27.86 26.05 28.52 26.05 30.55 27.37 30.55 27.37 29.19 36.31 29.19 36.31 31.18 24.41 31.18 24.41 32.51 26.05 32.51 26.05 34.68"/>
      <path class="st2" d="M29.09,34.68v6.07c-.73.27-1.26.97-1.26,1.79,0,1.06.86,1.92,1.92,1.92s1.92-.86,1.92-1.92c0-.82-.53-1.52-1.26-1.79v-6.07h-1.33ZM29.75,43.13c-.33,0-.59-.27-.59-.59s.27-.59.59-.59.59.27.59.59-.27.59-.59.59Z"/>
      <path class="st2" d="M33.26,34.63v6.12c-.73.27-1.26.97-1.26,1.79,0,1.06.86,1.92,1.92,1.92s1.92-.86,1.92-1.92c0-.82-.53-1.52-1.26-1.79v-6.12h-1.33ZM33.93,43.13c-.33,0-.59-.27-.59-.59s.27-.59.59-.59.59.27.59.59-.27.59-.59.59Z"/>
      <path class="st2" d="M39.43,37.21l-.89.99c1.85,1.67,2.87,3.89,2.87,6.27,0,4.84-4.3,8.78-9.58,8.78s-9.58-3.94-9.58-8.78c0-2.4,1.03-4.64,2.91-6.31l-.88-.99c-2.17,1.92-3.36,4.52-3.36,7.3,0,5.57,4.89,10.11,10.9,10.11s10.9-4.53,10.9-10.11c0-2.76-1.18-5.34-3.31-7.26Z"/>
    </g>
    <polygon class="st1" points="65.48 32.71 61.59 29.27 60.01 29.45 37.09 62.17 48.6 62.17 43.66 69.23 46.26 69.23 52.69 60.05 41.18 60.05 61.07 31.65 63.71 33.99 63.71 67.11 52.46 67.11 50.97 69.23 53.03 69.23 64.77 69.23 65.83 68.17 65.83 33.51 65.48 32.71"/>
  </g>
</svg>