<?xml version="1.0" encoding="UTF-8"?>
<svg id="Warstwa_1" xmlns="http://www.w3.org/2000/svg" version="1.1" viewBox="0 0 80 80">
  <!-- Generator: Adobe Illustrator 30.2.1, SVG Export Plug-In . SVG Version: 2.1.1 Build 1)  -->
  <defs>
    <style>
      .st0 {
        fill: #e5e5e5;
      }

      .st1 {
        fill: #172f4f;
      }

      .st2 {
        fill: #f5a11a;
      }
    </style>
  </defs>
  <path class="st0" d="M72.83,80H7.17l-7.17-7.17V7.17C2.8,4.37,4.37,2.8,7.17,0h65.67c2.8,2.8,4.37,4.37,7.17,7.17v65.67c-2.8,2.8-4.37,4.37-7.17,7.17Z"/>
  <g>
    <polygon class="st1" points="55.3 46.95 43.93 35.57 42.51 37.63 56 51.13 45.04 62.09 34.97 62.09 34.26 64.55 45.55 64.55 46.42 64.19 58.61 52 58.61 50.26 57.04 48.69 55.3 46.95"/>
    <polygon class="st1" points="31.33 23.9 23.57 16.14 21.83 16.14 6.02 31.95 6.02 33.69 11.65 39.31 14.14 46.3 16.46 45.47 13.87 38.22 13.58 37.77 8.63 32.82 22.7 18.75 29.95 26 30.82 26.36 36.96 26.36 39.44 23.9 31.33 23.9"/>
    <path class="st1" d="M56.48,48.69l-1.74-1.74h0s-11.65-11.65-11.65-11.65l-1.37-.26-8.52,3.76-3.75-2.03,15.32-15.25h11.7l.88-.37,3.01-3.08,11.59,11.6-12.34,12.4,1.74,1.73,13.2-13.27v-1.74s-13.34-13.35-13.34-13.35h-1.75s-3.51,3.61-3.51,3.61h-11.69l-.87.36-4.51,4.49h-8.11l-7.76-7.76h-1.74l-15.81,15.81v1.74l5.62,5.62,2.5,6.99,2.32-.83-2.59-7.25-.29-.46-4.95-4.95,14.07-14.07,7.25,7.25.87.36h6.15l-9.87,9.83.28,1.95,5.74,3.11,1.08.04,8.3-3.66,13.5,13.5-10.96,10.96h-10.06l1.91-6.58-.37-1.27-9.84-8.56-1.31-.19-7.67,3.46h0s-2.26.97-2.26.97l.4,1.11.38.54,15.44,12.71.78.28h13.12l.87-.36,12.19-12.19v-1.74l-1.57-1.57h0ZM31.94,61.79l-13.21-10.87,6.36-2.87,8.65,7.53-1.8,6.21Z"/>
    <path class="st2" d="M35.29,50.97,40.99,42.85h-2.05l-3,4.3h2.04l-2.68,3.83h2.07l3.76-5.36h-2.08l1.95-2.77Z"/>
    <polygon class="st2" points="54.74 46.95 43.36 35.57 41.94 37.63 55.44 51.13 44.47 62.09 34.41 62.09 33.69 64.55 44.98 64.55 45.85 64.19 58.04 52 58.04 50.26 56.47 48.69 54.74 46.95"/>
    <polygon class="st2" points="30.77 23.9 23 16.14 21.27 16.14 5.46 31.95 5.46 33.69 11.08 39.31 13.58 46.3 15.89 45.47 13.3 38.22 13.01 37.77 8.07 32.82 22.14 18.75 29.39 26 30.26 26.36 36.4 26.36 38.87 23.9 30.77 23.9"/>
  </g>
</svg>