<?xml version="1.0" encoding="UTF-8"?>
<svg id="Warstwa_1" xmlns="http://www.w3.org/2000/svg" version="1.1" viewBox="0 0 80 80">
  <!-- Generator: Adobe Illustrator 30.2.1, SVG Export Plug-In . SVG Version: 2.1.1 Build 1)  -->
  <defs>
    <style>
      .st0 {
        fill: #e5e5e5;
      }

      .st1 {
        fill: #172f4f;
      }

      .st2 {
        fill: #f5a11a;
      }
    </style>
  </defs>
  <path class="st0" d="M72.83,80H7.17l-7.17-7.17V7.17C2.8,4.37,4.37,2.8,7.17,0h65.67c2.8,2.8,4.37,4.37,7.17,7.17v65.67l-7.17,7.17Z"/>
  <g>
    <path class="st1" d="M48.44,41.44v-11.87l-2.05,2.93v6.29l-11.02-11.03h0s-.34-2.05-.34-2.05h-1.51v-11.53l11.72,11.8h2.95l.26-.29v-4.69l4.7,4.7h-1.91l-1.52,2.05h3.8v1.64c-1.05.41-1.79,1.43-1.79,2.62,0,1.56,1.27,2.82,2.82,2.82s2.82-1.27,2.82-2.82c0-1.19-.75-2.21-1.79-2.62v-1.64h.06l.73-1.75-7.9-7.9v-6.3l-.7-.7-1.35,1.93v11.15l-11.34-11.36h8.98l1.43-2.05h-12.97l-1.03,1.03v6.3l-7.9,7.9.73,1.75h.06v1.37c-1.19.42-2.05,1.56-2.05,2.9,0,1.7,1.38,3.08,3.08,3.08s3.08-1.38,3.08-3.08c0-1.34-.86-2.47-2.05-2.9v-1.37h5.07v5.28l-7.9,7.9.73,1.75h.06v1.37c-1.19.42-2.05,1.56-2.05,2.9,0,1.7,1.38,3.08,3.08,3.08s3.08-1.38,3.08-3.08c0-1.34-.86-2.47-2.05-2.9v-1.37h6.1s4.27,0,4.27,0l1.43-2.05h-4.68v-11.85l11.76,11.85h-4.58l-1.44,2.05h7.48l6.04,13.98h-2.77l-12.07-12.08-1.19,1.7,10.31,10.38h-17.58l-1.44,2.05h25.62l1.63,3.77h-12.74v2.05h13.63l1.15,2.65H22.64l1.06-2.65h-2.21l-1.32,3.3.95,1.41h37.75l.94-1.43-11.39-26.36ZM54.53,31.25c.42,0,.77.35.77.77s-.35.77-.77.77-.77-.35-.77-.77.35-.77.77-.77ZM25.36,33.04c-.57,0-1.03-.46-1.03-1.03s.46-1.03,1.03-1.03,1.03.46,1.03,1.03-.46,1.03-1.03,1.03ZM25.36,47.97c-.57,0-1.03-.46-1.03-1.03s.46-1.03,1.03-1.03,1.03.46,1.03,1.03-.46,1.03-1.03,1.03ZM31.46,40.63h-4.7l4.7-4.7v4.7ZM31.46,25.7h-4.7l4.7-4.7v4.7Z"/>
    <g>
      <g>
        <rect class="st1" x="53.51" y="41.65" width="2.05" height="2.63"/>
        <path class="st1" d="M54.53,50.02c-1.7,0-3.08-1.38-3.08-3.08s1.38-3.08,3.08-3.08,3.08,1.38,3.08,3.08-1.38,3.08-3.08,3.08ZM54.53,45.92c-.57,0-1.03.46-1.03,1.03s.46,1.03,1.03,1.03,1.03-.46,1.03-1.03-.46-1.03-1.03-1.03Z"/>
      </g>
      <path class="st1" d="M55.62,42.68h-8.2l-1.03-1.03v-8.2l1.75-.73,8.2,8.2-.73,1.75ZM48.44,40.63h4.7l-4.7-4.7v4.7Z"/>
    </g>
    <polygon class="st2" points="43.36 10.77 45.87 10.77 35.44 25.69 49.19 25.7 25.77 58.96 23.27 58.96 45.1 27.75 31.49 27.74 43.36 10.77"/>
  </g>
</svg>