<?xml version="1.0" encoding="UTF-8"?>
<svg id="Warstwa_1" xmlns="http://www.w3.org/2000/svg" version="1.1" viewBox="0 0 1100 412.05">
  <!-- Generator: Adobe Illustrator 29.8.4, SVG Export Plug-In . SVG Version: 2.1.1 Build 6)  -->
  <defs>
    <style>
      .st0 {
        fill: #fff;
      }
    </style>
  </defs>
  <rect width="1100" height="412.05"/>
  <g>
    <g>
      <path class="st0" d="M476.37,212.39h6.26l-16.36,31.11h-6.26l16.36-31.11Z"/>
      <path class="st0" d="M487.85,212.39h7.26l7.3,25.16,7.98-25.16h9.24l7.8,25.26,7.35-25.26h6.4l-9.11,31.12h-9.56l-7.89-25.44-8.12,25.44h-9.61l-9.06-31.12Z"/>
      <path class="st0" d="M544.81,234.08h7.44c.63,1.89,1.86,3.16,3.7,3.79,1.83.63,4.55.95,8.16.95,3.88,0,6.7-.34,8.46-1.02,1.76-.68,2.64-1.75,2.64-3.22,0-2.05-1.56-3.2-4.67-3.48-3.11-.27-6.52-.52-10.24-.74-3.71-.23-7.13-.87-10.24-1.94-3.11-1.07-4.67-3.4-4.67-7.01,0-3.37,1.6-5.81,4.8-7.33,3.2-1.52,7.67-2.28,13.42-2.28s10.12.77,13.15,2.3c3.02,1.53,4.76,4.03,5.21,7.49h-7.44c-.33-1.75-1.46-2.93-3.38-3.56-1.92-.63-4.44-.95-7.53-.95-3.73,0-6.48.3-8.25.9-1.77.6-2.66,1.7-2.66,3.29,0,1.93,1.56,3.01,4.67,3.25,3.11.24,6.52.47,10.21.7,3.7.23,7.1.87,10.22,1.94,3.11,1.07,4.67,3.39,4.67,6.97s-1.45,5.99-4.35,7.58c-2.9,1.6-7.57,2.39-14,2.39s-11.13-.8-14.07-2.41c-2.95-1.61-4.69-4.14-5.23-7.6Z"/>
      <path class="st0" d="M587.83,237.69l24.98-19.57h-24.53v-5.73h34.45v5.82l-24.94,19.57h25.39v5.73h-35.36v-5.82Z"/>
      <path class="st0" d="M644.03,230.97l-17.59-18.58h8.75l12.85,13.71,11.91-13.71h7.71l-16.33,18.63v12.49h-7.3v-12.54Z"/>
      <path class="st0" d="M669.69,234.08h7.44c.63,1.89,1.86,3.16,3.7,3.79s4.55.95,8.16.95c3.88,0,6.7-.34,8.46-1.02,1.76-.68,2.64-1.75,2.64-3.22,0-2.05-1.56-3.2-4.67-3.48-3.11-.27-6.52-.52-10.24-.74-3.71-.23-7.13-.87-10.24-1.94-3.11-1.07-4.67-3.4-4.67-7.01,0-3.37,1.6-5.81,4.8-7.33,3.2-1.52,7.67-2.28,13.42-2.28s10.12.77,13.15,2.3c3.02,1.53,4.76,4.03,5.21,7.49h-7.44c-.33-1.75-1.46-2.93-3.38-3.56-1.92-.63-4.44-.95-7.53-.95-3.73,0-6.48.3-8.25.9-1.77.6-2.66,1.7-2.66,3.29,0,1.93,1.56,3.01,4.67,3.25,3.11.24,6.52.47,10.21.7,3.7.23,7.1.87,10.22,1.94,3.11,1.07,4.67,3.39,4.67,6.97s-1.45,5.99-4.35,7.58c-2.9,1.6-7.57,2.39-14,2.39s-11.13-.8-14.07-2.41c-2.95-1.61-4.69-4.14-5.23-7.6Z"/>
      <path class="st0" d="M725.52,218.2h-14.97v-5.82h37.25v5.82h-14.97v25.3h-7.3v-25.3Z"/>
      <path class="st0" d="M753.98,212.39h7.3v12.27h5.82l14.34-12.27h9.25l-17.27,14.84,18.04,16.28h-9.92l-14.52-13.03h-5.73v13.03h-7.3v-31.12Z"/>
      <path class="st0" d="M796.33,212.39h7.3v31.12h-7.3v-31.12Z"/>
      <path class="st0" d="M812.74,212.39h31.75v5.41h-24.44v7.26h18.94v5.18h-18.94v7.85h24.63v5.41h-31.93v-31.12Z"/>
      <path class="st0" d="M865.24,212.39h31.43v5.82h-24.13v7.53h20.12v5.64h-20.12v12.13h-7.3v-31.12Z"/>
      <path class="st0" d="M910.96,212.39h9.7l16.28,31.12h-7.58l-4.06-7.85h-19.57l-4.1,7.85h-6.99l16.33-31.12ZM908.44,230.42h14.16l-7.08-13.57-7.08,13.57Z"/>
      <path class="st0" d="M940.6,237.69l24.98-19.57h-24.53v-5.73h34.45v5.82l-24.94,19.57h25.39v5.73h-35.36v-5.82Z"/>
      <path class="st0" d="M996.79,230.97l-17.59-18.58h8.75l12.85,13.71,11.91-13.71h7.71l-16.33,18.63v12.49h-7.3v-12.54Z"/>
    </g>
    <g>
      <path class="st0" d="M911.78,176.64h24.15l6.73-12.97,45.34-.29,7.53,13.26h24.89s-39.85-72.12-39.85-72.12h-29.11l-39.68,72.12ZM979.38,148.22h-28.92l14.9-26.34,14.02,26.34Z"/>
      <path class="st0" d="M291.83,176.64h79.48v-17.05l-57.71-.29v-11.66h53.31v-14.57h-53.32v-11.95l56.25-.29v-16.32h-78.01v72.12Z"/>
      <path class="st0" d="M380.55,176.64h75.52v-17.34h-53.97v-54.78h-21.56v72.12Z"/>
      <path class="st0" d="M464.58,145.02l19.65.29v-2.21c0-2.97,1.06-28.21,1.41-34.09l.29-4.49h-22.94l1.58,40.5Z"/>
      <path class="st0" d="M494.78,176.78h23.61v-27.68h10.41l34.02,27.54h30.32l-45.21-36.51,41.97-35.61h-31.74l-29.64,26.81h-10.71v-26.74h-23.02v72.19Z"/>
      <path class="st0" d="M597.94,176.64h24.15l6.73-12.97,45.34-.29,7.53,13.26h24.89s-39.85-72.12-39.85-72.12h-29.11l-39.68,72.12ZM665.54,148.22h-28.92l14.9-26.34,14.02,26.34Z"/>
      <path class="st0" d="M712.99,176.67l35.96-.07c39.3-.29,40.18-.35,47.69-3.85,5.81-2.68,10.09-7.69,10.97-12.88.23-1.11.41-9.91.47-19.52.12-16.9.06-17.6-1.29-21.56-1.88-5.65-6.22-10.08-11.67-11.83-7.21-2.33-9.74-2.45-46.46-2.45h-35.66v72.16ZM780.8,122.35c1.11.52,2.58,1.81,3.34,2.8,1.23,1.69,1.29,2.45,1.47,14.16.18,11.25.12,12.59-.94,14.92-.88,1.98-1.76,2.86-3.75,3.85-2.52,1.17-3.28,1.22-24.11,1.22h-21.53v-37.88h22.17c18.48,0,21.64.12,23.35.93Z"/>
      <path class="st0" d="M817.99,176.64h21.12v-19.09h39.24l4.46,3.61v15.47h21.88v-9.3c-.18-8.86-.29-9.67-1.64-12.12-1.58-2.74-4.87-5.3-8.33-6.47l-2.17-.7,4.75-2.39c6.98-3.5,7.21-4.08,7.21-17.54,0-9.85-.06-10.67-1.41-13.23-1.64-3.32-5.28-7.11-8.51-8.8-2.4-1.28-2.7-1.28-39.48-1.46l-37.13-.17v72.18ZM881.1,122.29c2.05,1.4,2.7,3.9,2.52,9.32-.23,4.84-.29,5.13-2.11,6.7-2.46,2.21-5.22,2.45-25.69,2.21l-16.42-.17-.29-18.94h20.41c16.89,0,20.59.12,21.59.87Z"/>
    </g>
    <path class="st0" d="M155.56,79.95c-10.73-.39-21.48-.41-32.21-.41h-43.87v164h42.66c12.61,0,21.56,0,28.14-.08,3.87-.03,6.91-.08,9.36-.15h.15c40.9-3.22,73.27-37.32,74.38-79.32.03-1.44.03-2.91,0-4.36-1.08-43.51-35.67-78.57-78.61-79.68ZM104.37,235.9V104.46h59.03l-48.61,69.51h32.93l-43.35,61.93ZM194.71,203.48c-10.37,10.42-21.48,15.5-35.59,16.17-4.15.21-9.77.15-9.77-.13l49.29-70.29h-33.58l24.29-34.43c.41,0,2.89,2.19,5.42,4.82,11.58,11.97,17,25.28,17,41.53,0,17.44-5.16,30.28-17.05,42.33Z"/>
    <g>
      <path class="st0" d="M292.11,270.23h3.19v7.63h4.01l9-7.63h4.12l-10.32,8.74,10.74,9.48h-4.43l-9.11-8.02h-4.01v8.02h-3.19v-18.21Z"/>
      <path class="st0" d="M312.75,279.34c0-3.43,1.04-5.86,3.13-7.29,2.09-1.43,5.13-2.14,9.14-2.14s7.03.71,9.12,2.14c2.09,1.43,3.13,3.86,3.13,7.29s-1.04,5.81-3.13,7.26c-2.09,1.44-5.12,2.16-9.12,2.16s-7.06-.72-9.14-2.16c-2.09-1.45-3.13-3.86-3.13-7.26ZM334.05,280.08v-1.56c0-2.15-.76-3.7-2.29-4.67-1.52-.96-3.77-1.45-6.74-1.45s-5.25.48-6.77,1.45c-1.52.97-2.28,2.53-2.28,4.67v1.56c0,2.17.76,3.74,2.28,4.72s3.78,1.48,6.77,1.48,5.22-.49,6.74-1.46c1.53-.98,2.29-2.56,2.29-4.74Z"/>
      <path class="st0" d="M351.79,285.81l-7.34-13.28v15.92h-2.9v-18.21h4.83l7.28,13.22,7.31-13.22h4.86v18.21h-3.22v-15.97l-7.36,13.33h-3.46Z"/>
      <path class="st0" d="M371.06,270.23h13.46c2.2,0,3.81.53,4.84,1.59s1.55,2.5,1.55,4.33-.52,3.31-1.55,4.38-2.64,1.61-4.84,1.61h-10.27v6.31h-3.19v-18.21ZM387.69,276.54v-.69c0-.95-.28-1.71-.84-2.28-.56-.57-1.47-.86-2.72-.86h-9.87v6.94h9.87c1.27,0,2.18-.28,2.73-.84.56-.56.83-1.32.83-2.27Z"/>
      <path class="st0" d="M394.76,270.23h3.19v15.63h14.12v2.59h-17.31v-18.21Z"/>
      <path class="st0" d="M415.46,270.23h17.84v2.43h-14.65v5.33h11.48v2.35h-11.48v5.68h14.75v2.43h-17.95v-18.21Z"/>
      <path class="st0" d="M444.41,272.82h-8.87v-2.59h20.93v2.59h-8.87v15.63h-3.2v-15.63Z"/>
      <path class="st0" d="M459.83,270.23h4.43l13.2,15.44v-15.44h2.96v18.21h-4.38l-13.25-15.52v15.52h-2.95v-18.21Z"/>
      <path class="st0" d="M485.66,270.23h17.84v2.43h-14.65v5.33h11.48v2.35h-11.48v5.68h14.75v2.43h-17.95v-18.21Z"/>
      <path class="st0" d="M515.1,270.23h13.67c2.04,0,3.6.48,4.66,1.45,1.07.97,1.6,2.34,1.6,4.12,0,1.51-.38,2.73-1.12,3.66-.75.92-1.84,1.53-3.26,1.81l5.2,7.18h-3.72l-5.07-6.99h-8.76v6.99h-3.19v-18.21ZM531.8,276.12v-.58c0-.9-.27-1.61-.82-2.15-.54-.54-1.45-.8-2.72-.8h-9.98v6.47h9.98c1.27,0,2.17-.27,2.72-.82s.82-1.25.82-2.11Z"/>
      <path class="st0" d="M538.4,279.34c0-3.43,1.04-5.86,3.13-7.29,2.09-1.43,5.13-2.14,9.14-2.14s7.03.71,9.12,2.14c2.09,1.43,3.13,3.86,3.13,7.29s-1.04,5.81-3.13,7.26c-2.09,1.44-5.12,2.16-9.12,2.16s-7.06-.72-9.14-2.16c-2.09-1.45-3.13-3.86-3.13-7.26ZM559.7,280.08v-1.56c0-2.15-.76-3.7-2.29-4.67-1.52-.96-3.77-1.45-6.74-1.45s-5.25.48-6.77,1.45c-1.52.97-2.28,2.53-2.28,4.67v1.56c0,2.17.76,3.74,2.28,4.72,1.52.98,3.78,1.48,6.77,1.48s5.22-.49,6.74-1.46c1.53-.98,2.29-2.56,2.29-4.74Z"/>
      <path class="st0" d="M565.19,285.86l15.47-13.09h-15.15v-2.53h19.4v2.59l-15.47,13.09h15.79v2.53h-20.04v-2.59Z"/>
      <path class="st0" d="M587.18,270.23h3.2l4.72,15.63,5.2-15.63h4.01l5.07,15.6,4.72-15.6h2.85l-5.54,18.21h-4.2l-5.09-15.68-5.22,15.68h-4.22l-5.49-18.21Z"/>
      <path class="st0" d="M620.28,270.23h3.19v18.21h-3.19v-18.21Z"/>
      <path class="st0" d="M636.14,270.23h4.25l9.69,18.21h-.82c-1.13.16-1.89.4-2.29.72-.4.33-.61.69-.61,1.1,0,.44.24.77.71,1,.48.23,1.37.34,2.69.34v1.93h-1.48c-1.48,0-2.59-.23-3.35-.68-.76-.46-1.13-1.11-1.13-1.95,0-.67.21-1.24.63-1.7.42-.47,1.12-.84,2.09-1.12l-2.48-4.7h-11.77l-2.69,5.07h-3.11l9.69-18.21ZM633.5,281.03h9.29l-4.64-8.79-4.64,8.79Z"/>
      <path class="st0" d="M651.79,285.86l15.47-13.09h-15.15v-2.53h19.4v2.59l-15.47,13.09h15.79v2.53h-20.04v-2.59Z"/>
      <path class="st0" d="M683.09,270.23h4.25l9.69,18.21h-3.38l-2.67-5.07h-11.77l-2.69,5.07h-3.11l9.69-18.21ZM680.45,281.03h9.29l-4.64-8.79-4.64,8.79Z"/>
      <path class="st0" d="M700.01,270.23h4.43l13.2,15.44v-15.44h2.96v18.21h-4.38l-13.25-15.52v15.52h-2.95v-18.21Z"/>
      <path class="st0" d="M725.85,270.23h3.19v18.21h-3.19v-18.21Z"/>
      <path class="st0" d="M741.72,270.23h4.25l9.69,18.21h-3.38l-2.67-5.07h-11.77l-2.69,5.07h-3.11l9.69-18.21ZM739.08,281.03h9.29l-4.64-8.79-4.64,8.79Z"/>
      <path class="st0" d="M772.68,270.23h17.84v2.43h-14.65v5.33h11.48v2.35h-11.48v5.68h14.75v2.43h-17.95v-18.21Z"/>
      <path class="st0" d="M794.66,270.23h3.19v15.63h14.12v2.59h-17.31v-18.21Z"/>
      <path class="st0" d="M815.36,270.23h17.84v2.43h-14.65v5.33h11.48v2.35h-11.48v5.68h14.75v2.43h-17.95v-18.21Z"/>
      <path class="st0" d="M837.34,270.23h3.19v7.63h4.01l9-7.63h4.12l-10.32,8.74,10.74,9.48h-4.43l-9.11-8.02h-4.01v8.02h-3.19v-18.21Z"/>
      <path class="st0" d="M867.75,272.82h-8.87v-2.59h20.93v2.59h-8.87v15.63h-3.2v-15.63Z"/>
      <path class="st0" d="M883.16,270.23h13.67c2.04,0,3.6.48,4.66,1.45,1.07.97,1.6,2.34,1.6,4.12,0,1.51-.38,2.73-1.12,3.66-.75.92-1.84,1.53-3.26,1.81l5.2,7.18h-3.72l-5.07-6.99h-8.76v6.99h-3.19v-18.21ZM899.87,276.12v-.58c0-.9-.27-1.61-.82-2.15-.54-.54-1.45-.8-2.72-.8h-9.98v6.47h9.98c1.27,0,2.17-.27,2.72-.82.54-.54.82-1.25.82-2.11Z"/>
      <path class="st0" d="M914.6,280.87l-10.19-10.64h3.88l8.1,8.5,7.58-8.5h3.46l-9.61,10.69v7.52h-3.22v-7.58Z"/>
      <path class="st0" d="M927.88,279.39c0-3.4,1-5.83,3.01-7.29,2.01-1.46,4.86-2.19,8.55-2.19,3.31,0,5.88.48,7.71,1.44,1.83.96,2.91,2.57,3.25,4.82h-3.25c-.32-1.48-1.12-2.48-2.4-3-1.29-.52-3.05-.78-5.31-.78-2.55,0-4.58.45-6.08,1.36-1.51.91-2.26,2.56-2.26,4.95v1.24c0,2.32.74,3.96,2.23,4.91,1.49.95,3.52,1.43,6.11,1.43,2.18,0,3.91-.24,5.18-.71,1.28-.47,2.13-1.4,2.55-2.77h3.24c-.44,2.09-1.56,3.61-3.36,4.55-1.81.94-4.34,1.41-7.62,1.41-3.7,0-6.55-.71-8.55-2.14-2.01-1.43-3.01-3.84-3.01-7.23Z"/>
      <path class="st0" d="M952.85,285.86l15.47-13.09h-15.15v-2.53h19.4v2.59l-15.47,13.09h15.79v2.53h-20.04v-2.59Z"/>
      <path class="st0" d="M976.73,270.23h4.43l13.2,15.44v-15.44h2.96v18.21h-4.38l-13.25-15.52v15.52h-2.95v-18.21Z"/>
      <path class="st0" d="M1002.57,270.23h17.84v2.43h-14.65v5.33h11.48v2.35h-11.48v5.68h14.75v2.43h-17.95v-18.21Z"/>
      <path class="st0" d="M292.11,314.36h12.43c3.2,0,5.63.71,7.29,2.13,1.67,1.42,2.49,3.75,2.49,7.01s-.83,5.47-2.49,6.91c-1.66,1.45-4.1,2.17-7.29,2.17h-12.43v-18.21ZM304.28,329.98c2.18,0,3.86-.47,5.04-1.41,1.18-.94,1.77-2.47,1.77-4.6v-1.16c0-2.09-.59-3.6-1.77-4.5-1.18-.9-2.86-1.36-5.04-1.36h-8.98v13.04h8.98Z"/>
      <path class="st0" d="M318.62,314.36h3.19v15.63h14.12v2.59h-17.31v-18.21Z"/>
      <path class="st0" d="M346.72,314.36h4.25l9.69,18.21h-3.38l-2.67-5.07h-11.77l-2.69,5.07h-3.11l9.69-18.21ZM344.08,325.16h9.29l-4.64-8.79-4.64,8.79Z"/>
      <path class="st0" d="M376.39,316.94h-8.87v-2.59h20.93v2.59h-8.87v15.63h-3.2v-15.63Z"/>
      <path class="st0" d="M389.9,314.36h3.2l4.72,15.63,5.2-15.63h4.01l5.07,15.6,4.72-15.6h2.85l-5.54,18.21h-4.2l-5.09-15.68-5.22,15.68h-4.22l-5.49-18.21Z"/>
      <path class="st0" d="M421.74,323.47c0-3.43,1.04-5.86,3.13-7.29,2.09-1.43,5.13-2.14,9.14-2.14s7.03.71,9.12,2.14c2.09,1.43,3.13,3.86,3.13,7.29s-1.04,5.81-3.13,7.26c-2.09,1.44-5.12,2.16-9.12,2.16s-7.06-.72-9.14-2.16c-2.09-1.45-3.13-3.86-3.13-7.26ZM443.04,324.2v-1.56c0-2.15-.76-3.7-2.29-4.67-1.52-.96-3.77-1.45-6.74-1.45s-5.25.48-6.77,1.45c-1.52.97-2.28,2.53-2.28,4.67v1.56c0,2.17.76,3.74,2.28,4.72s3.78,1.48,6.77,1.48,5.22-.49,6.74-1.46c1.53-.98,2.29-2.56,2.29-4.74Z"/>
      <path class="st0" d="M447.57,330.01h4.64c.77,0,1.33-.21,1.65-.64.32-.42.49-.98.49-1.69v-13.33h3.22v13.73c0,1.48-.34,2.6-1.01,3.36-.68.76-1.83,1.13-3.45,1.13h-5.54v-2.56Z"/>
      <path class="st0" d="M462.7,314.36h17.84v2.43h-14.65v5.33h11.48v2.35h-11.48v5.68h14.75v2.43h-17.95v-18.21Z"/>
      <path class="st0" d="M482.97,323.52c0-3.4,1-5.83,3.02-7.29,2.02-1.46,4.9-2.19,8.64-2.19,3.34,0,5.94.47,7.78,1.4,1.84.93,2.98,2.48,3.42,4.64h-3.25c-.37-1.37-1.2-2.31-2.49-2.83-1.29-.51-3.11-.76-5.45-.76-2.85,0-4.97.49-6.36,1.48-1.39.99-2.09,2.61-2.09,4.86v1.24c0,2.25.69,3.88,2.09,4.87,1.39.99,3.5,1.49,6.33,1.49s4.77-.39,6.12-1.17c1.36-.78,2.09-2,2.22-3.66h-7.86v-2.22h10.93v1.16c0,2.87-1,4.98-2.98,6.32-1.99,1.35-4.79,2.02-8.4,2.02s-6.63-.71-8.64-2.14c-2.01-1.43-3.02-3.84-3.02-7.23Z"/>
      <path class="st0" d="M509.23,323.47c0-3.43,1.04-5.86,3.13-7.29,2.09-1.43,5.13-2.14,9.14-2.14s7.03.71,9.12,2.14c2.09,1.43,3.13,3.86,3.13,7.29s-1.04,5.81-3.13,7.26c-2.09,1.44-5.12,2.16-9.12,2.16s-7.06-.72-9.14-2.16c-2.09-1.45-3.13-3.86-3.13-7.26ZM530.53,324.2v-1.56c0-2.15-.76-3.7-2.29-4.67-1.52-.96-3.77-1.45-6.74-1.45s-5.25.48-6.77,1.45c-1.52.97-2.28,2.53-2.28,4.67v1.56c0,2.17.76,3.74,2.28,4.72s3.78,1.48,6.77,1.48,5.22-.49,6.74-1.46c1.53-.98,2.29-2.56,2.29-4.74Z"/>
      <path class="st0" d="M545.48,314.36h12.43c3.2,0,5.63.71,7.29,2.13,1.67,1.42,2.49,3.75,2.49,7.01s-.83,5.47-2.49,6.91c-1.66,1.45-4.1,2.17-7.29,2.17h-12.43v-18.21ZM557.64,329.98c2.18,0,3.86-.47,5.04-1.41,1.18-.94,1.77-2.47,1.77-4.6v-1.16c0-2.09-.59-3.6-1.77-4.5-1.18-.9-2.86-1.36-5.04-1.36h-8.98v13.04h8.98Z"/>
      <path class="st0" d="M571,323.47c0-3.43,1.04-5.86,3.13-7.29,2.09-1.43,5.13-2.14,9.14-2.14s7.03.71,9.12,2.14c2.09,1.43,3.13,3.86,3.13,7.29s-1.04,5.81-3.13,7.26c-2.09,1.44-5.12,2.16-9.12,2.16s-7.06-.72-9.14-2.16c-2.09-1.45-3.13-3.86-3.13-7.26ZM592.3,324.2v-1.56c0-2.15-.76-3.7-2.29-4.67-1.52-.96-3.77-1.45-6.74-1.45s-5.25.48-6.77,1.45c-1.52.97-2.28,2.53-2.28,4.67v1.56c0,2.17.76,3.74,2.28,4.72,1.52.98,3.78,1.48,6.77,1.48s5.22-.49,6.74-1.46c1.53-.98,2.29-2.56,2.29-4.74Z"/>
      <path class="st0" d="M610.03,329.93l-7.34-13.28v15.92h-2.9v-18.21h4.83l7.28,13.22,7.31-13.22h4.86v18.21h-3.22v-15.97l-7.36,13.33h-3.46Z"/>
      <path class="st0" d="M629.04,324.7v-10.35h3.22v10.22c0,2.2.64,3.72,1.93,4.56,1.29.84,3.09,1.27,5.41,1.27s4.12-.42,5.41-1.27,1.93-2.37,1.93-4.56v-10.22h2.93v10.35c0,2.75-.85,4.8-2.55,6.15-1.7,1.36-4.27,2.03-7.72,2.03s-6.16-.68-7.92-2.03c-1.76-1.35-2.64-3.4-2.64-6.15Z"/>
      <path class="st0" d="M662.3,314.36h3.19v18.21h-3.19v-18.21Z"/>
      <path class="st0" d="M678.18,314.36h13.43c1.83,0,3.22.38,4.18,1.12.96.75,1.44,1.86,1.44,3.34,0,.99-.24,1.85-.71,2.6-.47.75-1.24,1.28-2.29,1.6,1.2.24,2.1.74,2.7,1.48.61.74.91,1.7.91,2.87,0,1.67-.48,2.96-1.44,3.86-.96.9-2.39,1.35-4.29,1.35h-13.93v-18.21ZM693.99,319.48v-.55c0-.78-.24-1.37-.72-1.78-.48-.41-1.25-.62-2.31-.62h-9.58v5.67h9.58c1.06,0,1.83-.24,2.31-.71.48-.47.72-1.14.72-2.01ZM694.65,327.61v-.69c0-.81-.28-1.44-.86-1.9-.57-.46-1.42-.69-2.55-.69h-9.87v6.07h9.87c1.11,0,1.95-.24,2.53-.71.58-.47.87-1.17.87-2.08Z"/>
      <path class="st0" d="M702.15,314.36h3.19v18.21h-3.19v-18.21Z"/>
      <path class="st0" d="M709.33,329.98l15.47-13.09h-15.15v-2.53h19.4v2.59l-15.47,13.09h15.79v2.53h-20.04v-2.59Z"/>
      <path class="st0" d="M733.22,314.36h4.43l13.2,15.44v-15.44h2.96v18.21h-4.38l-13.25-15.52v15.52h-2.95v-18.21Z"/>
      <path class="st0" d="M759.06,314.36h17.84v2.43h-14.65v5.33h11.48v2.35h-11.48v5.68h14.75v2.43h-17.95v-18.21Z"/>
      <path class="st0" d="M779.7,327.35h3.27c.46,1.25,1.28,2.09,2.45,2.52,1.18.43,2.9.65,5.17.65,2.5,0,4.3-.25,5.4-.75,1.1-.5,1.65-1.25,1.65-2.26,0-1.43-.92-2.25-2.75-2.48-1.84-.23-3.85-.4-6.03-.53-2.18-.12-4.19-.47-6.03-1.03-1.84-.56-2.76-1.89-2.76-3.99,0-1.88.9-3.26,2.69-4.13,1.8-.87,4.31-1.31,7.55-1.31s5.62.43,7.31,1.29c1.69.86,2.67,2.26,2.93,4.2h-3.3c-.23-1.18-.96-1.99-2.18-2.44-1.23-.45-2.81-.68-4.76-.68-2.31,0-4.06.23-5.25.68s-1.79,1.23-1.79,2.33c0,1.34.92,2.1,2.76,2.3,1.84.19,3.85.35,6.03.47,2.18.12,4.19.48,6.03,1.07,1.84.59,2.76,1.94,2.76,4.05,0,1.9-.8,3.3-2.4,4.21-1.6.9-4.2,1.36-7.81,1.36s-6.15-.44-7.83-1.32c-1.68-.88-2.71-2.29-3.1-4.22Z"/>
      <path class="st0" d="M804.69,324.7v-10.35h3.22v10.22c0,2.2.64,3.72,1.93,4.56,1.29.84,3.09,1.27,5.41,1.27s4.12-.42,5.41-1.27c1.29-.84,1.93-2.37,1.93-4.56v-10.22h2.93v10.35c0,2.75-.85,4.8-2.55,6.15-1.7,1.36-4.27,2.03-7.72,2.03s-6.16-.68-7.92-2.03c-1.76-1.35-2.64-3.4-2.64-6.15Z"/>
    </g>
  </g>
</svg>