<?xml version="1.0" encoding="UTF-8"?>
<svg id="Warstwa_1" xmlns="http://www.w3.org/2000/svg" version="1.1" viewBox="0 0 1100 330.13">
  <!-- Generator: Adobe Illustrator 29.8.4, SVG Export Plug-In . SVG Version: 2.1.1 Build 6)  -->
  <defs>
    <style>
      .st0 {
        fill: #fff;
      }

      .st1 {
        fill: #002e52;
      }

      .st2 {
        fill: #5c5c5c;
      }
    </style>
  </defs>
  <rect class="st0" width="1100" height="330.13"/>
  <g>
    <g>
      <path class="st2" d="M476.38,216.36h6.22l-16.26,30.92h-6.22l16.26-30.92Z"/>
      <path class="st2" d="M487.79,216.35h7.22l7.26,25.01,7.94-25.01h9.19l7.75,25.11,7.31-25.11h6.36l-9.05,30.93h-9.5l-7.85-25.28-8.07,25.28h-9.55l-9.01-30.93Z"/>
      <path class="st2" d="M544.41,237.92h7.4c.63,1.88,1.85,3.14,3.68,3.76s4.53.94,8.11.94c3.85,0,6.66-.34,8.41-1.01,1.75-.67,2.62-1.74,2.62-3.2,0-2.03-1.55-3.18-4.64-3.45-3.09-.27-6.49-.51-10.18-.74-3.69-.23-7.08-.87-10.18-1.93-3.09-1.06-4.64-3.38-4.64-6.97,0-3.35,1.59-5.77,4.78-7.29,3.18-1.51,7.63-2.26,13.34-2.26s10.06.76,13.07,2.29c3,1.52,4.73,4,5.18,7.44h-7.4c-.33-1.74-1.45-2.91-3.36-3.54s-4.41-.94-7.49-.94c-3.71,0-6.44.3-8.2.9-1.76.6-2.64,1.69-2.64,3.27,0,1.91,1.55,2.99,4.64,3.23,3.09.24,6.48.47,10.15.69,3.68.23,7.06.87,10.15,1.93,3.09,1.06,4.64,3.37,4.64,6.92s-1.44,5.95-4.33,7.53c-2.88,1.59-7.52,2.38-13.92,2.38s-11.06-.8-13.99-2.4c-2.93-1.6-4.66-4.12-5.2-7.55Z"/>
      <path class="st2" d="M587.18,241.5l24.83-19.46h-24.39v-5.69h34.25v5.78l-24.79,19.45h25.24v5.7h-35.15v-5.78Z"/>
      <path class="st2" d="M643.04,234.83l-17.48-18.47h8.7l12.78,13.63,11.83-13.63h7.67l-16.23,18.51v12.42h-7.26v-12.46Z"/>
      <path class="st2" d="M668.55,237.92h7.4c.63,1.88,1.85,3.14,3.68,3.76s4.53.94,8.11.94c3.85,0,6.66-.34,8.41-1.01,1.75-.67,2.62-1.74,2.62-3.2,0-2.03-1.55-3.18-4.64-3.45-3.09-.27-6.49-.51-10.18-.74-3.69-.23-7.08-.87-10.18-1.93-3.09-1.06-4.64-3.38-4.64-6.97,0-3.35,1.59-5.77,4.78-7.29,3.18-1.51,7.63-2.26,13.34-2.26s10.06.76,13.07,2.29c3,1.52,4.73,4,5.18,7.44h-7.4c-.33-1.74-1.45-2.91-3.36-3.54s-4.41-.94-7.49-.94c-3.71,0-6.44.3-8.2.9-1.76.6-2.64,1.69-2.64,3.27,0,1.91,1.55,2.99,4.64,3.23,3.09.24,6.48.47,10.15.69,3.68.23,7.06.87,10.15,1.93,3.09,1.06,4.64,3.37,4.64,6.92s-1.44,5.95-4.33,7.53c-2.88,1.59-7.52,2.38-13.92,2.38s-11.06-.8-13.99-2.4c-2.93-1.6-4.66-4.12-5.2-7.55Z"/>
      <path class="st2" d="M724.05,222.14h-14.88v-5.78h37.03v5.78h-14.88v25.15h-7.26v-25.15Z"/>
      <path class="st2" d="M752.33,216.35h7.26v12.19h5.78l14.26-12.19h9.19l-17.17,14.75,17.93,16.18h-9.86l-14.44-12.95h-5.69v12.95h-7.26v-30.93Z"/>
      <path class="st2" d="M794.43,216.35h7.26v30.93h-7.26v-30.93Z"/>
      <path class="st2" d="M810.75,216.35h31.56v5.38h-24.3v7.22h18.83v5.15h-18.83v7.8h24.48v5.38h-31.74v-30.93Z"/>
      <path class="st2" d="M862.93,216.35h31.25v5.78h-23.98v7.49h19.99v5.6h-19.99v12.06h-7.26v-30.93Z"/>
      <path class="st2" d="M908.38,216.35h9.64l16.18,30.93h-7.53l-4.03-7.8h-19.46l-4.08,7.8h-6.95l16.23-30.93ZM905.87,234.28h14.08l-7.04-13.49-7.04,13.49Z"/>
      <path class="st2" d="M937.84,241.5l24.83-19.46h-24.39v-5.69h34.25v5.78l-24.79,19.45h25.24v5.7h-35.15v-5.78Z"/>
      <path class="st2" d="M993.69,234.83l-17.48-18.47h8.7l12.78,13.63,11.83-13.63h7.67l-16.23,18.51v12.42h-7.26v-12.46Z"/>
    </g>
    <g>
      <path class="st1" d="M909.19,180.82h24l6.69-12.89,45.07-.29,7.49,13.18h24.74s-39.62-71.69-39.62-71.69h-28.94l-39.44,71.69ZM976.39,152.58h-28.75l14.81-26.19,13.94,26.19Z"/>
      <path class="st1" d="M292.95,180.82h79.01v-16.95l-57.36-.29v-11.59h52.99v-14.48h-53v-11.88l55.91-.29v-16.22h-77.55v71.69Z"/>
      <path class="st1" d="M381.14,180.82h75.07v-17.23h-53.64v-54.46h-21.43v71.69Z"/>
      <path class="st1" d="M464.66,149.39l19.53.29v-2.2c0-2.95,1.05-28.04,1.4-33.89l.29-4.46h-22.8l1.57,40.26Z"/>
      <path class="st1" d="M494.69,180.96h23.47v-27.52h10.35l33.81,27.37h30.14l-44.94-36.29,41.72-35.4h-31.55l-29.47,26.65h-10.64v-26.58h-22.89v71.76Z"/>
      <path class="st1" d="M597.23,180.82h24l6.69-12.89,45.07-.29,7.49,13.18h24.74s-39.62-71.69-39.62-71.69h-28.94l-39.44,71.69ZM664.42,152.58h-28.75l14.81-26.19,13.94,26.19Z"/>
      <path class="st1" d="M711.59,180.85l35.74-.07c39.07-.29,39.94-.35,47.4-3.82,5.77-2.66,10.03-7.65,10.9-12.8.23-1.1.41-9.85.47-19.41.12-16.8.06-17.5-1.28-21.43-1.87-5.62-6.18-10.02-11.6-11.76-7.17-2.32-9.68-2.43-46.18-2.43h-35.45v71.73ZM779,126.85c1.11.52,2.57,1.8,3.32,2.78,1.22,1.68,1.28,2.43,1.46,14.08.17,11.18.12,12.51-.93,14.83-.87,1.97-1.75,2.84-3.73,3.82-2.51,1.16-3.27,1.22-23.96,1.22h-21.4v-37.66h22.04c18.37,0,21.52.12,23.21.93Z"/>
      <path class="st1" d="M815.96,180.82h20.99v-18.97h39.01l4.43,3.59v15.38h21.75v-9.24c-.17-8.81-.29-9.62-1.63-12.05-1.57-2.72-4.84-5.27-8.28-6.43l-2.16-.7,4.72-2.38c6.94-3.48,7.17-4.06,7.17-17.44,0-9.79-.06-10.6-1.4-13.15-1.63-3.3-5.25-7.07-8.45-8.75-2.39-1.27-2.68-1.27-39.24-1.45l-36.91-.17v71.75ZM878.7,126.8c2.04,1.39,2.68,3.88,2.51,9.27-.23,4.81-.29,5.1-2.1,6.66-2.45,2.2-5.19,2.43-25.54,2.2l-16.33-.17-.29-18.83h20.29c16.79,0,20.47.12,21.46.87Z"/>
    </g>
    <path class="st1" d="M158.44,84.71c-10.66-.38-21.35-.41-32.02-.41h-43.61v163.02h42.4c12.54,0,21.43,0,27.97-.08,3.85-.03,6.87-.08,9.31-.15h.15c40.66-3.2,72.83-37.1,73.93-78.84.03-1.44.03-2.9,0-4.33-1.08-43.25-35.45-78.1-78.14-79.2ZM107.56,239.73V109.07h58.68l-48.32,69.1h32.74l-43.09,61.56ZM197.36,207.5c-10.31,10.36-21.35,15.41-35.38,16.08-4.13.21-9.72.15-9.72-.13l48.99-69.87h-33.38l24.15-34.23c.41,0,2.87,2.18,5.38,4.79,11.51,11.9,16.89,25.13,16.89,41.28,0,17.33-5.13,30.1-16.95,42.07Z"/>
  </g>
</svg>